# Blender 4.0.1
# www.blender.org
mtllib tank_body.mtl
o Main_Body
v 1.893435 0.434819 1.208117
v 1.893435 0.434819 2.725661
v 1.893435 1.962096 1.208117
v 1.893435 1.962096 2.725661
v 3.606565 0.434819 1.208117
v 3.606565 0.434819 2.725661
v 3.606565 1.962096 1.208117
v 3.606565 1.962096 2.725661
v -4.226548 -2.561350 5.443498
v -3.892992 -0.927137 5.582994
v -4.226548 -2.561350 3.722490
v -3.892992 -0.927137 3.582994
v 4.304655 -0.712558 5.268526
v 3.767974 0.191364 5.268526
v 4.304655 -0.712558 3.897462
v 3.767974 0.191364 3.897462
v 3.597379 0.478694 3.582994
v 4.299068 -1.079149 3.722490
v 4.299068 -1.079150 5.443498
v 3.597379 0.478694 5.582994
v 4.304655 -0.712558 4.754377
v 3.767974 0.191364 4.411611
v 3.969229 -0.147607 5.268526
v 4.036314 -0.260597 4.122994
v 3.786777 0.159708 4.582994
v 4.103400 -0.373587 3.897462
v 4.304655 -0.712558 4.411611
v 3.767974 0.191364 4.754377
v 4.103400 -0.373587 5.268526
v 4.285852 -0.680902 4.582994
v 4.036314 -0.260597 5.042994
v 3.835059 0.078374 5.268526
v 3.767974 0.191364 4.068845
v 4.304655 -0.712558 5.097143
v 3.835059 0.078373 3.897462
v 4.161084 -0.470749 4.981366
v 4.252420 -0.624592 4.812994
v 3.911546 -0.050445 4.981366
v 3.820210 0.103397 4.812994
v 4.237570 -0.599568 5.268526
v 3.767974 0.191364 5.097143
v 4.304655 -0.712558 4.068845
v 4.237570 -0.599568 3.897462
v 4.161084 -0.470749 4.184623
v 4.252420 -0.624592 4.352994
v 3.911546 -0.050445 4.184622
v 3.820210 0.103397 4.352994
v 3.902145 -0.034617 3.897462
v 4.304655 -0.712558 4.925760
v 3.767974 0.191364 4.240228
v 3.902145 -0.034617 5.268526
v 4.170485 -0.486578 5.268526
v 3.767974 0.191364 4.925760
v 4.304655 -0.712558 4.240228
v 4.170485 -0.486577 3.897462
v 4.036314 -0.260597 5.268526
v 3.767974 0.191364 4.582994
v 4.304655 -0.712558 4.582994
v 4.036314 -0.260597 3.897462
v 4.212765 -0.557797 4.257725
v 3.971730 -0.151814 4.138668
v 3.795280 0.145386 4.463937
v 4.277349 -0.666580 4.463938
v 4.212764 -0.557798 4.908263
v 4.100900 -0.369380 4.138668
v 3.971730 -0.151814 5.027320
v 3.859865 0.036603 4.257725
v 4.277349 -0.666580 4.702051
v 4.100900 -0.369380 5.027320
v 3.795280 0.145386 4.702051
v 3.859865 0.036603 4.908263
v 3.969229 -0.147607 3.897462
v -4.402730 -2.640611 3.582994
v -4.402730 -2.640611 5.582994
v 4.475250 -0.999888 3.582994
v 4.475250 -0.999888 5.582994
v -3.200973 -1.279324 3.910594
v -3.200973 -1.279323 5.255395
v 3.577581 -0.100854 3.910593
v 3.577581 -0.100854 5.255394
v -4.192100 -2.235298 3.722490
v -4.192100 -2.235298 5.443498
v 4.243102 -0.753098 3.722490
v 4.243102 -0.753098 5.443498
v 2.446163 -2.500000 3.580000
v 3.606984 0.094980 3.580000
v 2.555641 2.500000 -3.580000
v 2.561749 2.500000 3.579999
v -3.999999 0.587913 3.579999
v -2.634942 2.102877 -2.927111
v -3.641644 0.986265 -2.927111
v -2.273309 2.500000 3.579999
v -3.999999 -1.992047 3.580000
v -2.419169 -2.500000 3.580000
v 2.446163 -2.500000 -0.000000
v 2.558696 2.500000 -0.000000
v 3.606984 0.097205 0.000000
v -2.633631 2.102819 -0.652888
v -3.641810 0.985893 -0.652888
v -3.999999 -1.992231 0.000000
v -2.419644 -2.499999 0.000000
v -3.999999 0.588589 0.000000
v -2.275113 2.500000 -0.000000
v 1.893435 0.434819 -1.208117
v 1.893435 0.434819 -2.725661
v 1.893435 1.962095 -1.208117
v 1.893435 1.962095 -2.725661
v 3.606565 0.434819 -1.208117
v 3.606565 0.434819 -2.725661
v 3.606565 1.962095 -1.208117
v 3.606565 1.962095 -2.725661
v -4.226548 -2.561350 -5.443498
v -3.892992 -0.927137 -5.582994
v -4.226548 -2.561350 -3.722489
v -3.892992 -0.927137 -3.582994
v 4.304655 -0.712558 -5.268525
v 3.767974 0.191364 -5.268525
v 4.304655 -0.712558 -3.897462
v 3.767974 0.191364 -3.897462
v 3.597379 0.478694 -3.582994
v 4.299068 -1.079149 -3.722490
v 4.299068 -1.079149 -5.443498
v 3.597379 0.478694 -5.582994
v 4.304655 -0.712558 -4.754376
v 3.767974 0.191364 -4.411611
v 3.969229 -0.147607 -5.268525
v 4.036314 -0.260597 -4.122994
v 3.786777 0.159708 -4.582994
v 4.103400 -0.373587 -3.897462
v 4.304655 -0.712558 -4.411611
v 3.767974 0.191364 -4.754376
v 4.103400 -0.373587 -5.268525
v 4.285852 -0.680902 -4.582994
v 4.036314 -0.260597 -5.042994
v 3.835059 0.078374 -5.268525
v 3.767974 0.191364 -4.068845
v 4.304655 -0.712558 -5.097143
v 3.835059 0.078373 -3.897462
v 4.161084 -0.470749 -4.981365
v 4.252420 -0.624592 -4.812994
v 3.911546 -0.050445 -4.981365
v 3.820210 0.103397 -4.812994
v 4.237570 -0.599568 -5.268525
v 3.767974 0.191364 -5.097143
v 4.304655 -0.712558 -4.068845
v 4.237570 -0.599568 -3.897462
v 4.161084 -0.470749 -4.184622
v 4.252420 -0.624592 -4.352994
v 3.911546 -0.050445 -4.184622
v 3.820210 0.103397 -4.352993
v 3.902145 -0.034617 -3.897462
v 4.304655 -0.712558 -4.925759
v 3.767974 0.191364 -4.240228
v 3.902145 -0.034617 -5.268525
v 4.170485 -0.486578 -5.268525
v 3.767974 0.191364 -4.925759
v 4.304655 -0.712558 -4.240228
v 4.170485 -0.486577 -3.897462
v 4.036314 -0.260597 -5.268525
v 3.767974 0.191364 -4.582994
v 4.304655 -0.712558 -4.582994
v 4.036314 -0.260597 -3.897462
v 4.212765 -0.557797 -4.257725
v 3.971730 -0.151814 -4.138668
v 3.795280 0.145386 -4.463937
v 4.277349 -0.666580 -4.463937
v 4.212764 -0.557797 -4.908263
v 4.100900 -0.369380 -4.138668
v 3.971730 -0.151814 -5.027320
v 3.859865 0.036603 -4.257724
v 4.277349 -0.666580 -4.702051
v 4.100900 -0.369380 -5.027320
v 3.795280 0.145386 -4.702050
v 3.859865 0.036603 -4.908262
v 3.969229 -0.147607 -3.897462
v -4.402730 -2.640611 -3.582994
v -4.402730 -2.640611 -5.582993
v 4.475250 -0.999888 -3.582994
v 4.475250 -0.999888 -5.582994
v -3.200973 -1.279324 -3.910593
v -3.200973 -1.279323 -5.255395
v 3.577581 -0.100854 -3.910593
v 3.577581 -0.100854 -5.255394
v -4.192100 -2.235298 -3.722489
v -4.192100 -2.235298 -5.443498
v 4.243102 -0.753098 -3.722490
v 4.243102 -0.753098 -5.443498
v 2.446163 -2.500000 -3.579999
v 3.606984 0.094980 -3.579999
v 2.555641 2.500000 3.579999
v 2.561749 2.500000 -3.579999
v -3.999999 0.587913 -3.579999
v -2.634942 2.102877 2.927111
v -3.641644 0.986265 2.927111
v -2.273309 2.500000 -3.579999
v -3.999999 -1.992047 -3.579999
v -2.419169 -2.499999 -3.579999
v -2.633631 2.102818 0.652888
v -3.641810 0.985893 0.652888
vn -1.0000 -0.0000 -0.0000
vn -0.0000 1.0000 -0.0000
vn 1.0000 -0.0000 -0.0000
vn -0.0000 -1.0000 -0.0000
vn -0.0000 -0.0000 -1.0000
vn -0.0000 -0.0000 1.0000
vn -0.9585 0.2851 -0.0000
vn -0.1845 0.9828 -0.0000
vn 0.8599 0.5105 -0.0000
vn 0.8598 0.5106 -0.0000
vn 0.8598 0.5107 -0.0000
vn 0.8598 0.5105 -0.0000
vn 0.4103 -0.9120 -0.0000
vn 0.1620 -0.9318 -0.3248
vn 0.1713 -0.9852 -0.0000
vn -0.9856 -0.1692 -0.0000
vn 0.9945 -0.1051 -0.0000
vn 0.6942 -0.7198 -0.0000
vn 0.0413 -0.2377 0.9705
vn -0.6999 -0.7142 -0.0000
vn 0.0411 -0.2337 -0.9714
vn 0.9128 -0.4083 -0.0000
vn 0.9171 0.3986 0.0002
vn -0.3059 -0.9521 -0.0000
vn -0.7422 0.6702 0.0004
vn 0.1620 -0.9318 0.3248
vn 0.0413 -0.2377 -0.9705
vn 0.9130 -0.4080 0.0003
vn 0.9166 0.3999 0.0008
vn -0.7424 0.6700 -0.0001
vn 0.1726 -0.9340 0.3127
vn 0.0411 -0.2337 0.9714
vn 0.9130 -0.4080 -0.0003
vn 0.9166 0.3999 -0.0008
vn -0.7424 0.6700 0.0001
vn 0.1726 -0.9340 -0.3127
vn 0.9171 0.3986 -0.0002
vn -0.7422 0.6702 -0.0004
vt 0.625000 0.000000
vt 0.375000 0.250000
vt 0.375000 0.000000
vt 0.625000 0.250000
vt 0.375000 0.500000
vt 0.625000 0.500000
vt 0.375000 0.750000
vt 0.625000 0.750000
vt 0.375000 1.000000
vt 0.125000 0.750000
vt 0.125000 0.500000
vt 0.875000 0.500000
vt 0.625000 1.000000
vt 0.364591 0.740068
vt 0.135409 0.740068
vt 0.480896 0.539308
vt 0.461791 0.539308
vt 0.423582 0.646423
vt 0.423582 0.667846
vt 0.576418 0.603577
vt 0.576418 0.582154
vt 0.519104 0.710691
vt 0.538209 0.710691
vt 0.442687 0.710691
vt 0.423582 0.689269
vt 0.442687 0.689269
vt 0.519104 0.560731
vt 0.538209 0.539308
vt 0.538209 0.560731
vt 0.557313 0.710691
vt 0.538209 0.689269
vt 0.557313 0.689269
vt 0.557313 0.667846
vt 0.576418 0.646423
vt 0.576418 0.667846
vt 0.557313 0.582154
vt 0.576418 0.689269
vt 0.576418 0.625000
vt 0.557313 0.603577
vt 0.423582 0.582154
vt 0.442687 0.560731
vt 0.442687 0.582154
vt 0.500000 0.560731
vt 0.500000 0.539308
vt 0.423582 0.625000
vt 0.442687 0.603577
vt 0.442687 0.625000
vt 0.461791 0.560731
vt 0.442687 0.539308
vt 0.519104 0.689269
vt 0.461791 0.689269
vt 0.461791 0.710691
vt 0.423582 0.560731
vt 0.519104 0.539308
vt 0.423582 0.603577
vt 0.442687 0.667846
vt 0.576418 0.710691
vt 0.480896 0.560731
vt 0.500000 0.689269
vt 0.557313 0.539308
vt 0.557313 0.560731
vt 0.576418 0.560731
vt 0.480896 0.710691
vt 0.500000 0.710691
vt 0.442687 0.646423
vt 0.557313 0.646423
vt 0.480896 0.689269
vt 0.576418 0.539308
vt 0.135409 0.509932
vt 0.364591 0.509932
vt 0.341109 0.535086
vt 0.158891 0.714914
vt 0.158891 0.535086
vt 0.341109 0.714914
vt 0.375000 0.625000
vt 0.506600 0.750000
vt 0.625000 0.976311
vt 0.395759 1.000000
vt 0.506711 0.625000
vt 0.625000 0.782709
vt 0.000000 0.000000
vt 0.197444 0.750000
vt 0.657804 0.625000
vt 0.851311 0.750000
vt 0.657709 0.750000
vt 0.547911 0.000000
vt 0.395750 0.125000
vt 0.395759 0.000000
vt 0.423582 0.710692
vt 0.557313 0.625000
vt 0.375000 0.927556
vt 0.547911 1.000000
vt 0.641450 0.641354
vt 0.197425 0.625000
vt 0.875000 0.750000
vt 0.423582 0.539308
vt 0.851370 0.625000
vt 0.547945 0.125000
s 0
f 2/1/1 3/2/1 1/3/1
f 4/4/2 7/5/2 3/2/2
f 8/6/3 5/7/3 7/5/3
f 6/8/4 1/9/4 5/7/4
f 7/5/5 1/10/5 3/11/5
f 4/12/6 6/8/6 8/6/6
f 10/1/7 73/2/7 74/3/7
f 12/4/5 75/5/5 73/2/5
f 76/7/6 10/13/6 74/9/6
f 19/14/5 82/15/5 84/14/5
f 12/12/8 20/8/8 17/6/8
f 26/16/9 55/17/9 17/6/9
f 21/18/9 49/19/9 75/5/9
f 22/20/9 50/21/9 20/8/9
f 23/22/9 51/23/9 76/7/9
f 40/24/9 34/25/9 64/26/9
f 61/27/9 48/28/9 46/29/9
f 32/30/9 38/31/9 71/32/9
f 39/33/10 28/34/10 53/35/10
f 22/20/10 47/36/10 50/21/10
f 71/32/9 53/35/9 41/37/9
f 57/38/10 62/39/10 22/20/10
f 54/40/9 60/41/9 45/42/9
f 24/43/9 26/16/9 59/44/9
f 58/45/11 63/46/11 30/47/11
f 44/48/9 43/49/9 55/17/9
f 51/23/9 66/50/9 38/31/9
f 40/24/9 36/51/9 52/52/9
f 42/53/9 43/49/9 60/41/9
f 24/43/9 72/54/9 61/27/9
f 27/55/10 45/42/10 63/46/10
f 64/26/9 49/19/9 37/56/9
f 32/30/9 41/37/9 14/57/9
f 65/58/9 55/17/9 26/16/9
f 23/22/9 31/59/9 66/50/9
f 46/29/9 35/60/9 67/61/9
f 50/21/12 67/61/12 33/62/12
f 29/63/9 31/59/9 56/64/9
f 68/65/11 58/45/11 30/47/11
f 70/66/10 57/38/10 28/34/10
f 37/56/10 21/18/10 68/65/10
f 52/52/9 69/67/9 29/63/9
f 33/62/9 35/60/9 16/68/9
f 9/15/13 73/11/13 11/69/13
f 11/69/14 75/5/14 18/70/14
f 18/70/13 76/7/13 19/14/13
f 19/14/14 74/10/14 9/15/14
f 79/71/15 78/72/15 77/73/15
f 18/70/6 81/69/6 11/69/6
f 19/14/16 83/70/16 18/70/16
f 11/69/17 82/15/17 9/15/17
f 77/73/18 82/15/18 81/69/18
f 77/73/19 83/70/19 79/71/19
f 79/71/20 84/14/20 80/74/20
f 78/72/21 84/14/21 82/15/21
f 95/75/22 86/76/22 85/7/22
f 86/76/6 92/77/6 93/78/6
f 97/79/23 88/80/23 86/76/23
f 101/81/24 93/81/24 100/81/24
f 103/81/25 89/81/25 92/81/25
f 94/82/4 95/75/4 85/7/4
f 96/83/2 92/84/2 88/85/2
f 89/86/1 100/87/1 93/88/1
f 106/2/1 105/1/1 104/3/1
f 110/5/2 107/4/2 106/2/2
f 108/7/3 111/6/3 110/5/3
f 104/9/4 109/8/4 108/7/4
f 104/10/6 110/5/6 106/11/6
f 109/8/5 107/12/5 111/6/5
f 176/2/7 113/1/7 177/3/7
f 178/5/6 115/4/6 176/2/6
f 179/7/5 113/13/5 123/8/5
f 122/14/6 185/15/6 112/15/6
f 123/8/8 115/12/8 120/6/8
f 120/6/9 129/16/9 162/44/9
f 178/5/9 124/18/9 161/45/9
f 123/8/9 125/20/9 160/38/9
f 179/7/9 126/22/9 159/64/9
f 143/24/9 137/25/9 116/89/9
f 151/28/9 164/27/9 149/29/9
f 135/30/9 141/31/9 154/23/9
f 131/34/10 142/33/10 156/35/10
f 125/20/10 150/36/10 165/39/10
f 156/35/9 174/32/9 144/37/9
f 160/38/11 165/39/11 128/90/11
f 163/41/9 157/40/9 148/42/9
f 127/43/9 129/16/9 168/58/9
f 166/46/11 161/45/11 133/47/11
f 147/48/9 146/49/9 163/41/9
f 154/23/9 169/50/9 126/22/9
f 139/51/9 143/24/9 155/52/9
f 146/49/9 145/53/9 163/41/9
f 175/54/9 127/43/9 164/27/9
f 148/42/10 130/55/10 166/46/10
f 167/26/9 152/19/9 137/25/9
f 144/37/9 135/30/9 117/57/9
f 168/58/9 158/17/9 147/48/9
f 126/22/9 134/59/9 159/64/9
f 138/60/9 149/29/9 170/61/9
f 153/21/9 170/61/9 150/36/9
f 134/59/9 132/63/9 159/64/9
f 171/65/10 161/45/10 124/18/10
f 160/38/10 173/66/10 131/34/10
f 140/56/10 124/18/10 152/19/10
f 172/67/9 155/52/9 132/63/9
f 136/62/9 138/60/9 170/61/9
f 176/11/13 112/15/13 114/69/13
f 178/5/26 114/69/26 121/70/26
f 122/14/13 178/5/13 121/70/13
f 112/15/14 179/7/14 122/14/14
f 181/72/15 182/71/15 180/73/15
f 184/69/5 121/70/5 114/69/5
f 186/70/16 122/14/16 121/70/16
f 185/15/17 114/69/17 112/15/17
f 180/73/18 185/15/18 181/72/18
f 186/70/27 180/73/27 182/71/27
f 183/74/20 186/70/20 182/71/20
f 181/72/19 187/14/19 183/74/19
f 95/75/28 189/76/28 97/79/28
f 197/91/5 192/92/5 191/80/5
f 97/79/29 191/80/29 96/93/29
f 196/81/24 101/81/24 100/81/24
f 103/81/30 192/81/30 102/81/30
f 197/82/4 95/75/4 101/94/4
f 195/84/2 96/83/2 191/85/2
f 100/87/1 192/86/1 196/88/1
f 2/1/1 4/4/1 3/2/1
f 4/4/2 8/6/2 7/5/2
f 8/6/3 6/8/3 5/7/3
f 6/8/4 2/13/4 1/9/4
f 7/5/5 5/7/5 1/10/5
f 4/12/6 2/95/6 6/8/6
f 10/1/7 12/4/7 73/2/7
f 12/4/5 17/6/5 75/5/5
f 76/7/6 20/8/6 10/13/6
f 19/14/5 9/15/5 82/15/5
f 12/12/8 10/95/8 20/8/8
f 17/6/9 16/68/9 35/60/9
f 17/6/9 35/60/9 48/28/9
f 15/96/9 75/5/9 17/6/9
f 43/49/9 15/96/9 17/6/9
f 17/6/9 48/28/9 72/54/9
f 17/6/9 72/54/9 59/44/9
f 55/17/9 43/49/9 17/6/9
f 17/6/9 59/44/9 26/16/9
f 75/5/9 15/96/9 42/53/9
f 75/5/9 42/53/9 54/40/9
f 13/89/9 76/7/9 75/5/9
f 34/25/9 13/89/9 75/5/9
f 75/5/9 54/40/9 27/55/9
f 75/5/9 27/55/9 58/45/9
f 49/19/9 34/25/9 75/5/9
f 75/5/9 58/45/9 21/18/9
f 20/8/9 14/57/9 41/37/9
f 20/8/9 41/37/9 53/35/9
f 16/68/9 17/6/9 20/8/9
f 33/62/9 16/68/9 20/8/9
f 20/8/9 53/35/9 28/34/9
f 20/8/9 28/34/9 57/38/9
f 50/21/9 33/62/9 20/8/9
f 20/8/9 57/38/9 22/20/9
f 76/7/9 13/89/9 40/24/9
f 76/7/9 40/24/9 52/52/9
f 14/57/9 20/8/9 76/7/9
f 32/30/9 14/57/9 76/7/9
f 76/7/9 52/52/9 29/63/9
f 76/7/9 29/63/9 56/64/9
f 51/23/9 32/30/9 76/7/9
f 76/7/9 56/64/9 23/22/9
f 40/24/9 13/89/9 34/25/9
f 61/27/9 72/54/9 48/28/9
f 32/30/9 51/23/9 38/31/9
f 39/33/10 70/66/10 28/34/10
f 22/20/10 62/39/10 47/36/10
f 71/32/9 39/33/9 53/35/9
f 57/38/11 25/90/11 62/39/11
f 54/40/9 42/53/9 60/41/9
f 24/43/9 65/58/9 26/16/9
f 58/45/10 27/55/10 63/46/10
f 44/48/9 60/41/9 43/49/9
f 51/23/9 23/22/9 66/50/9
f 40/24/9 64/26/9 36/51/9
f 42/53/9 15/96/9 43/49/9
f 24/43/9 59/44/9 72/54/9
f 27/55/10 54/40/10 45/42/10
f 64/26/12 34/25/12 49/19/12
f 32/30/9 71/32/9 41/37/9
f 65/58/9 44/48/9 55/17/9
f 23/22/9 56/64/9 31/59/9
f 46/29/9 48/28/9 35/60/9
f 50/21/9 47/36/9 67/61/9
f 29/63/9 69/67/9 31/59/9
f 68/65/10 21/18/10 58/45/10
f 70/66/11 25/90/11 57/38/11
f 37/56/10 49/19/10 21/18/10
f 52/52/9 36/51/9 69/67/9
f 33/62/9 67/61/9 35/60/9
f 9/15/13 74/10/13 73/11/13
f 11/69/31 73/11/31 75/5/31
f 18/70/13 75/5/13 76/7/13
f 19/14/31 76/7/31 74/10/31
f 79/71/15 80/74/15 78/72/15
f 18/70/6 83/70/6 81/69/6
f 19/14/16 84/14/16 83/70/16
f 11/69/17 81/69/17 82/15/17
f 77/73/18 78/72/18 82/15/18
f 77/73/32 81/69/32 83/70/32
f 79/71/20 83/70/20 84/14/20
f 78/72/27 80/74/27 84/14/27
f 95/75/33 97/79/33 86/76/33
f 94/91/6 85/7/6 86/76/6
f 86/76/6 88/80/6 92/77/6
f 92/77/6 89/92/6 93/78/6
f 93/78/6 94/91/6 86/76/6
f 97/79/34 96/93/34 88/80/34
f 101/81/24 94/81/24 93/81/24
f 103/81/35 102/81/35 89/81/35
f 94/82/4 101/94/4 95/75/4
f 96/83/2 103/97/2 92/84/2
f 89/86/1 102/98/1 100/87/1
f 106/2/1 107/4/1 105/1/1
f 110/5/2 111/6/2 107/4/2
f 108/7/3 109/8/3 111/6/3
f 104/9/4 105/13/4 109/8/4
f 104/10/6 108/7/6 110/5/6
f 109/8/5 105/95/5 107/12/5
f 176/2/7 115/4/7 113/1/7
f 178/5/6 120/6/6 115/4/6
f 179/7/5 177/9/5 113/13/5
f 122/14/6 187/14/6 185/15/6
f 123/8/8 113/95/8 115/12/8
f 138/60/9 119/68/9 120/6/9
f 120/6/9 178/5/9 118/96/9
f 120/6/9 118/96/9 146/49/9
f 151/28/9 138/60/9 120/6/9
f 175/54/9 151/28/9 120/6/9
f 120/6/9 146/49/9 158/17/9
f 120/6/9 158/17/9 129/16/9
f 162/44/9 175/54/9 120/6/9
f 145/53/9 118/96/9 178/5/9
f 178/5/9 179/7/9 116/89/9
f 178/5/9 116/89/9 137/25/9
f 157/40/9 145/53/9 178/5/9
f 130/55/9 157/40/9 178/5/9
f 178/5/9 137/25/9 152/19/9
f 178/5/9 152/19/9 124/18/9
f 161/45/9 130/55/9 178/5/9
f 144/37/9 117/57/9 123/8/9
f 123/8/9 120/6/9 119/68/9
f 123/8/9 119/68/9 136/62/9
f 156/35/9 144/37/9 123/8/9
f 131/34/9 156/35/9 123/8/9
f 123/8/9 136/62/9 153/21/9
f 123/8/9 153/21/9 125/20/9
f 160/38/9 131/34/9 123/8/9
f 143/24/9 116/89/9 179/7/9
f 179/7/9 123/8/9 117/57/9
f 179/7/9 117/57/9 135/30/9
f 155/52/9 143/24/9 179/7/9
f 132/63/9 155/52/9 179/7/9
f 179/7/9 135/30/9 154/23/9
f 179/7/9 154/23/9 126/22/9
f 159/64/9 132/63/9 179/7/9
f 143/24/9 167/26/9 137/25/9
f 151/28/9 175/54/9 164/27/9
f 135/30/9 174/32/9 141/31/9
f 131/34/10 173/66/10 142/33/10
f 125/20/10 153/21/10 150/36/10
f 156/35/9 142/33/9 174/32/9
f 160/38/10 125/20/10 165/39/10
f 163/41/9 145/53/9 157/40/9
f 127/43/9 162/44/9 129/16/9
f 166/46/10 130/55/10 161/45/10
f 147/48/9 158/17/9 146/49/9
f 154/23/9 141/31/9 169/50/9
f 139/51/9 167/26/9 143/24/9
f 146/49/9 118/96/9 145/53/9
f 175/54/9 162/44/9 127/43/9
f 148/42/10 157/40/10 130/55/10
f 167/26/9 140/56/9 152/19/9
f 144/37/9 174/32/9 135/30/9
f 168/58/9 129/16/9 158/17/9
f 126/22/9 169/50/9 134/59/9
f 138/60/9 151/28/9 149/29/9
f 153/21/9 136/62/9 170/61/9
f 134/59/9 172/67/9 132/63/9
f 171/65/11 133/47/11 161/45/11
f 160/38/11 128/90/11 173/66/11
f 140/56/10 171/65/10 124/18/10
f 172/67/9 139/51/9 155/52/9
f 136/62/9 119/68/9 138/60/9
f 176/11/13 177/10/13 112/15/13
f 178/5/36 176/11/36 114/69/36
f 122/14/13 179/7/13 178/5/13
f 112/15/31 177/10/31 179/7/31
f 181/72/15 183/74/15 182/71/15
f 184/69/5 186/70/5 121/70/5
f 186/70/16 187/14/16 122/14/16
f 185/15/17 184/69/17 114/69/17
f 180/73/18 184/69/18 185/15/18
f 186/70/21 184/69/21 180/73/21
f 183/74/20 187/14/20 186/70/20
f 181/72/32 185/15/32 187/14/32
f 95/75/22 188/7/22 189/76/22
f 189/76/5 188/7/5 197/91/5
f 197/91/5 196/78/5 192/92/5
f 192/92/5 195/77/5 191/80/5
f 191/80/5 189/76/5 197/91/5
f 97/79/37 189/76/37 191/80/37
f 196/81/24 197/81/24 101/81/24
f 103/81/38 195/81/38 192/81/38
f 197/82/4 188/7/4 95/75/4
f 195/84/2 103/97/2 96/83/2
f 100/87/1 102/98/1 192/86/1
l 87 96
l 91 90
l 99 91
l 90 98
l 99 98
l 190 96
l 194 193
l 199 194
l 193 198
l 199 198
